<svg xmlns="http://www.w3.org/2000/svg" xmlns:xlink="http://www.w3.org/1999/xlink" viewBox="0 0 80 80" version="1.1" fill="#ffc745" id="svg_icon.primary" x="60" y="41" width="40" height="40"><g id="surface1"><path style=" " d="M 12 11 C 11.640625 10.996094 11.304688 11.183594 11.121094 11.496094 C 10.941406 11.808594 10.941406 12.191406 11.121094 12.503906 C 11.304688 12.816406 11.640625 13.003906 12 13 L 12 15 L 10 15 C 7.25 15 5 17.25 5 20 L 5 62 C 5 64.75 7.25 67 10 67 L 70 67 C 72.75 67 75 64.75 75 62 L 75 20 C 75 17.25 72.75 15 70 15 L 35 15 L 35 13 C 35.359375 13.003906 35.695313 12.816406 35.878906 12.503906 C 36.058594 12.191406 36.058594 11.808594 35.878906 11.496094 C 35.695313 11.183594 35.359375 10.996094 35 11 L 24 11 C 23.640625 10.996094 23.304688 11.183594 23.121094 11.496094 C 22.941406 11.808594 22.941406 12.191406 23.121094 12.503906 C 23.304688 12.816406 23.640625 13.003906 24 13 L 24 15 L 19 15 L 19 13 C 19.359375 13.003906 19.695313 12.816406 19.878906 12.503906 C 20.058594 12.191406 20.058594 11.808594 19.878906 11.496094 C 19.695313 11.183594 19.359375 10.996094 19 11 Z M 14 13 L 17 13 L 17 15 L 14 15 Z M 26 13 L 33 13 L 33 15 L 26 15 Z M 10 17 L 70 17 C 71.667969 17 73 18.332031 73 20 L 73 62 C 73 63.667969 71.667969 65 70 65 L 10 65 C 8.332031 65 7 63.667969 7 62 L 7 20 C 7 18.332031 8.332031 17 10 17 Z M 61 21 L 61 24 L 70 24 L 70 21 Z M 46 23 C 36.621094 23 29 30.621094 29 40 C 29 49.378906 36.621094 57 46 57 C 55.378906 57 63 49.378906 63 40 C 63 30.621094 55.378906 23 46 23 Z M 46 25 C 54.296875 25 61 31.703125 61 40 C 61 48.296875 54.296875 55 46 55 C 37.703125 55 31 48.296875 31 40 C 31 31.703125 37.703125 25 46 25 Z M 10 28 C 9.449219 28 9 28.449219 9 29 C 9 29.550781 9.449219 30 10 30 C 10.550781 30 11 29.550781 11 29 C 11 28.449219 10.550781 28 10 28 Z M 14 28 C 13.449219 28 13 28.449219 13 29 C 13 29.550781 13.449219 30 14 30 C 14.550781 30 15 29.550781 15 29 C 15 28.449219 14.550781 28 14 28 Z M 18 28 C 17.449219 28 17 28.449219 17 29 C 17 29.550781 17.449219 30 18 30 C 18.550781 30 19 29.550781 19 29 C 19 28.449219 18.550781 28 18 28 Z M 22 28 C 21.449219 28 21 28.449219 21 29 C 21 29.550781 21.449219 30 22 30 C 22.550781 30 23 29.550781 23 29 C 23 28.449219 22.550781 28 22 28 Z M 26 28 C 25.449219 28 25 28.449219 25 29 C 25 29.550781 25.449219 30 26 30 C 26.550781 30 27 29.550781 27 29 C 27 28.449219 26.550781 28 26 28 Z M 30 28 C 29.449219 28 29 28.449219 29 29 C 29 29.550781 29.449219 30 30 30 C 30.550781 30 31 29.550781 31 29 C 31 28.449219 30.550781 28 30 28 Z M 46 28 C 39.382813 28 34 33.382813 34 40 C 34 46.617188 39.382813 52 46 52 C 52.617188 52 58 46.617188 58 40 C 58 33.382813 52.617188 28 46 28 Z M 62 28 C 61.449219 28 61 28.449219 61 29 C 61 29.550781 61.449219 30 62 30 C 62.550781 30 63 29.550781 63 29 C 63 28.449219 62.550781 28 62 28 Z M 66 28 C 65.449219 28 65 28.449219 65 29 C 65 29.550781 65.449219 30 66 30 C 66.550781 30 67 29.550781 67 29 C 67 28.449219 66.550781 28 66 28 Z M 70 28 C 69.449219 28 69 28.449219 69 29 C 69 29.550781 69.449219 30 70 30 C 70.550781 30 71 29.550781 71 29 C 71 28.449219 70.550781 28 70 28 Z M 46 30 C 51.535156 30 56 34.464844 56 40 C 56 45.535156 51.535156 50 46 50 C 40.464844 50 36 45.535156 36 40 C 36 34.464844 40.464844 30 46 30 Z M 25 38 C 23.894531 38 23 38.894531 23 40 C 23 41.105469 23.894531 42 25 42 C 26.105469 42 27 41.105469 27 40 C 27 38.894531 26.105469 38 25 38 Z M 10 60 C 9.449219 60 9 60.449219 9 61 C 9 61.550781 9.449219 62 10 62 C 10.550781 62 11 61.550781 11 61 C 11 60.449219 10.550781 60 10 60 Z M 14 60 C 13.449219 60 13 60.449219 13 61 C 13 61.550781 13.449219 62 14 62 C 14.550781 62 15 61.550781 15 61 C 15 60.449219 14.550781 60 14 60 Z M 18 60 C 17.449219 60 17 60.449219 17 61 C 17 61.550781 17.449219 62 18 62 C 18.550781 62 19 61.550781 19 61 C 19 60.449219 18.550781 60 18 60 Z M 22 60 C 21.449219 60 21 60.449219 21 61 C 21 61.550781 21.449219 62 22 62 C 22.550781 62 23 61.550781 23 61 C 23 60.449219 22.550781 60 22 60 Z M 26 60 C 25.449219 60 25 60.449219 25 61 C 25 61.550781 25.449219 62 26 62 C 26.550781 62 27 61.550781 27 61 C 27 60.449219 26.550781 60 26 60 Z M 30 60 C 29.449219 60 29 60.449219 29 61 C 29 61.550781 29.449219 62 30 62 C 30.550781 62 31 61.550781 31 61 C 31 60.449219 30.550781 60 30 60 Z M 34 60 C 33.449219 60 33 60.449219 33 61 C 33 61.550781 33.449219 62 34 62 C 34.550781 62 35 61.550781 35 61 C 35 60.449219 34.550781 60 34 60 Z M 38 60 C 37.449219 60 37 60.449219 37 61 C 37 61.550781 37.449219 62 38 62 C 38.550781 62 39 61.550781 39 61 C 39 60.449219 38.550781 60 38 60 Z M 42 60 C 41.449219 60 41 60.449219 41 61 C 41 61.550781 41.449219 62 42 62 C 42.550781 62 43 61.550781 43 61 C 43 60.449219 42.550781 60 42 60 Z M 46 60 C 45.449219 60 45 60.449219 45 61 C 45 61.550781 45.449219 62 46 62 C 46.550781 62 47 61.550781 47 61 C 47 60.449219 46.550781 60 46 60 Z M 50 60 C 49.449219 60 49 60.449219 49 61 C 49 61.550781 49.449219 62 50 62 C 50.550781 62 51 61.550781 51 61 C 51 60.449219 50.550781 60 50 60 Z M 54 60 C 53.449219 60 53 60.449219 53 61 C 53 61.550781 53.449219 62 54 62 C 54.550781 62 55 61.550781 55 61 C 55 60.449219 54.550781 60 54 60 Z M 58 60 C 57.449219 60 57 60.449219 57 61 C 57 61.550781 57.449219 62 58 62 C 58.550781 62 59 61.550781 59 61 C 59 60.449219 58.550781 60 58 60 Z M 62 60 C 61.449219 60 61 60.449219 61 61 C 61 61.550781 61.449219 62 62 62 C 62.550781 62 63 61.550781 63 61 C 63 60.449219 62.550781 60 62 60 Z M 66 60 C 65.449219 60 65 60.449219 65 61 C 65 61.550781 65.449219 62 66 62 C 66.550781 62 67 61.550781 67 61 C 67 60.449219 66.550781 60 66 60 Z M 70 60 C 69.449219 60 69 60.449219 69 61 C 69 61.550781 69.449219 62 70 62 C 70.550781 62 71 61.550781 71 61 C 71 60.449219 70.550781 60 70 60 Z "></path></g></svg>
